<svg width="512" height="512" viewBox="0 0 512 512" fill="none" xmlns="http://www.w3.org/2000/svg">
<g clip-path="url(#clip0_381_941)">
<path d="M142.81 144.591C147.288 144.392 152.717 144.524 157.275 144.526L183.673 144.54L210.703 144.531C215.484 144.526 220.324 144.47 225.09 144.551C229.877 144.667 233.659 146.025 236.972 149.471C241.139 153.578 241.079 159.46 241.029 164.906C241.002 167.842 241.078 170.926 241.033 173.923C240.926 181.147 241.224 188.499 240.913 195.71C220.514 197.645 204.63 201.866 185.912 209.754C184.819 210.392 181.697 211.753 180.41 212.373C176.871 214.06 173.394 215.874 169.985 217.812C152.335 227.898 142.554 236.807 128.444 250.745C128.757 243.729 128.494 234.782 128.49 227.588L128.475 183.084L128.475 167.787C128.476 161.145 127.677 154.348 132.707 149.206C135.773 146.073 138.603 145.185 142.81 144.591Z" fill="black"/>
<path d="M285.29 144.587C285.837 144.563 286.382 144.545 286.93 144.533C304.935 144.231 323.785 144.556 341.867 144.544L359.37 144.516C366.35 144.503 373.482 143.632 378.93 148.941C384.522 154.394 383.505 161.65 383.492 168.843L383.465 186.074L383.41 250.722C381.262 248.448 379.06 246.228 376.802 244.065C353.342 221.233 323.9 205.51 291.877 198.716C286.697 197.619 276.15 195.866 271.042 195.908C270.88 185.781 271.115 175.609 270.995 165.476C270.962 162.716 270.865 159.631 271.357 156.928C271.76 154.574 272.72 152.35 274.152 150.44C277.087 146.492 280.702 145.222 285.29 144.587Z" fill="black"/>
<path d="M245.606 512C243.697 511.36 240.08 511.04 237.985 510.802C230.716 509.985 223.708 508.56 216.674 506.535C179.239 495.762 147.747 470.317 129.347 435.982C111.475 402.482 107.609 363.262 118.596 326.917C129.648 290.537 154.638 260.002 188.114 241.975C221.82 223.918 261.333 220.034 297.91 231.181C334.363 242.41 364.888 267.617 382.808 301.287C400.593 334.865 404.34 374.125 393.23 410.46C381.915 447.027 356.558 477.612 322.723 495.505C310.16 502.117 296.705 506.877 282.778 509.63C279.433 510.257 268.765 511.225 266.703 512H245.606ZM286.185 335.252C291.368 335.162 295.058 334.477 298.898 330.497C301.665 327.615 303.16 323.742 303.05 319.747C302.863 313.387 298.15 307.272 291.873 305.852C289.465 305.307 285.605 305.312 283.065 305.34C264.158 305.537 245.136 305.067 226.24 305.365C220.73 305.58 216.907 305.885 212.746 310.185C210.102 312.917 208.711 317.59 208.989 321.377C209.26 325.32 211.098 328.99 214.093 331.57C216.068 333.26 218.949 334.697 221.497 334.927C228.259 335.542 235.967 335.26 242.809 335.257L286.185 335.252Z" fill="black"/>
<path d="M0 204.73L0.224206 204.328C2.61308 199.957 4.1785 195.178 9.67373 193.736C15.6044 192.18 24.7424 192.749 30.8377 192.748L60.442 192.747L84.3587 192.753C88.5292 192.755 94.4403 192.592 98.5348 192.922L98.5192 262.74L98.542 283.223C98.546 286.548 98.647 291.683 98.3685 294.845C98.1902 296.87 95.1558 303.38 94.2645 305.675C92.606 309.935 91.1125 314.258 89.7872 318.633C84.9947 334.693 82.5457 351.363 82.5157 368.125C82.4957 373.455 83.0005 378.5 83.0352 383.573C69.5055 384.123 53.2935 383.703 39.5597 383.715L24.0517 383.728C19.8199 383.728 15.1419 383.965 11.0546 382.958C5.88767 381.685 2.18859 377.31 0.435223 372.455C0.283063 372.035 0.25488 372.043 0 371.648V204.73Z" fill="black"/>
<path d="M413.44 192.875C418.123 192.594 423.913 192.75 428.683 192.747L455.003 192.74L481.7 192.742C485.258 192.743 488.823 192.753 492.383 192.747C497.988 192.737 503.475 192.881 507.6 197.231C509.968 199.726 510.673 201.987 512 205.032V306.997C510.523 309.577 510.133 312.42 507.36 314.953C505.75 316.423 502.788 318.49 500.61 318.75C493.018 319.66 484.13 319.183 476.468 319.263C458.44 319.45 440.205 319.027 422.223 319.205C421.42 315.597 418.788 307.687 417.193 304.4C412.995 295.755 413.398 293.527 413.425 284.235L413.448 266.007L413.44 192.875Z" fill="black"/>
<path d="M59.9712 0H66.242C73.824 4.02618 78.1745 5.92277 78.173 15.9893C85.693 16.0596 93.2133 16.0747 100.733 16.0346C107.993 16.0283 116.37 14.8561 121.91 20.4231C127.866 26.4097 127.796 35.908 121.806 41.792C119.814 43.7127 117.331 45.0477 114.631 45.6502C111.023 46.4612 100.183 46.155 95.9133 46.133C90.8918 46.1072 84.5798 46.3295 79.625 46.203C79.1415 46.1872 78.6592 46.148 78.1795 46.0858L78.1773 120.534C78.2273 134.683 78.2005 148.833 78.0973 162.982C70.0728 162.463 61.443 163.187 53.3703 162.92C51.7395 162.867 49.7262 162.89 48.0985 163.011C48.4242 153.335 48.1923 142.368 48.192 132.567L48.1805 76.2452C48.1785 67.1865 47.78 54.8745 48.2625 46.2093C41.078 46.1315 33.8928 46.118 26.708 46.169C17.3827 46.19 6.99255 47.6835 2.00759 38.456C1.28653 37.1215 0.724787 35.3362 0 34.202V27.855C0.70626 26.8067 1.40486 24.8955 2.05412 23.6502C6.80562 14.5372 16.9551 16.017 25.9533 16.025L47.943 16.09C48.9208 6.01805 51.302 4.52475 59.5662 0.213849L59.9712 0Z" fill="black"/>
<path d="M433.845 349.253C443.682 349.045 453.945 349.195 463.81 349.213C463.532 368.105 463.807 387.73 463.805 406.67L463.797 429.253C463.795 433.435 463.665 438.54 463.917 442.623C474.29 453.493 485.632 464.055 496.1 474.893C500.412 479.355 505.577 483.803 509.432 488.648C510.26 489.69 511.365 492.828 512 494.285V499.713C509.397 505.833 508.147 508.71 501.547 511.283C500.96 511.51 500.487 511.66 499.955 512H494.022C491.91 511.013 488.915 509.925 487.262 508.423C483.805 505.28 480.455 501.718 477.16 498.418L459.777 481.035C456.212 477.47 452.355 473.458 448.645 470.108C440.415 478.48 432.125 486.793 423.77 495.04C419.167 499.655 414.307 504.793 409.417 509.073C408.052 510.268 405.492 510.938 403.892 511.803L403.53 512H397.55C396.835 511.563 395.282 510.868 394.45 510.525C385.64 507.133 383.042 495.26 388.59 488.04C391.59 484.138 396.437 479.733 400.035 476.135L421.652 454.54C425.285 450.913 430.49 446.005 433.755 442.28C434.297 411.653 433.765 379.983 433.845 349.253Z" fill="black"/>
<path d="M433.643 64.2565C433.95 60.1285 434.638 56.768 437.38 53.4915C439.905 50.4585 443.558 48.5832 447.493 48.297C457.32 47.5182 463.418 54.8202 463.885 64.1482C471.573 64.3947 479.34 64.1592 487.025 64.2332C490.203 64.264 494.883 64.0662 497.938 64.38C499.675 64.5427 501.38 64.962 502.995 65.6245C508.563 67.9427 509.903 71.5342 512 76.534V81.9987C509.888 85.9405 509.35 89.02 505.25 91.7127C503.58 92.8095 501.808 93.6277 499.82 93.9602C496.165 94.573 466.935 94.767 463.863 94.144C463.968 101.041 463.803 108.551 463.8 115.497L463.795 162.878C453.88 163.089 443.623 162.673 433.738 162.995C433.945 160.896 433.835 157.225 433.835 154.993L433.838 140.327L433.82 94.4732C427.078 94.362 420.335 94.3227 413.593 94.3557C409.42 94.3727 401.078 94.651 397.408 93.835C394.708 93.246 392.213 91.9475 390.183 90.0737C381.755 82.2512 385.673 67.022 397.133 64.7497C401.543 63.876 407.008 64.2417 411.568 64.2447L433.643 64.2565Z" fill="black"/>
<path d="M48.2118 413.315C51.173 413.562 55.4848 413.437 58.5368 413.437L78.1068 413.46C78.204 423.115 78.215 432.772 78.1395 442.427C88.3855 452.985 99.117 463.267 109.453 473.77C114.019 478.41 119.905 483.682 123.836 488.8C125.68 491.2 126.345 494.257 126.286 497.28C126.223 501.345 124.511 505.207 121.543 507.985C118.429 510.905 116.969 510.377 114.402 512H108.34C106.805 511.03 103.445 509.99 102.103 508.785C97.9105 505.03 93.698 500.565 89.7055 496.567L63.2513 470.11C49.687 482.617 37.2555 496.815 23.5993 509.245C22.4771 510.267 19.7057 511.035 18.2954 511.807L17.9522 512H12.0213C7.05003 509.31 4.4735 509.632 1.45222 503.33C1.08648 502.567 0.59133 501.265 0.224654 500.575L0 500.157V493.827C0.96462 492.237 1.73791 489.482 2.77875 488.262C6.4146 483.995 10.6471 480.05 14.6302 476.082L36.1343 454.6C39.6618 451.072 44.814 446.205 48.0143 442.56C48.533 433.637 48.1475 422.425 48.2118 413.315Z" fill="black"/>
</g>
<defs>
<clipPath id="clip0_381_941">
<rect width="512" height="512" fill="white"/>
</clipPath>
</defs>
</svg>
